# xmcd
#
# Track frame offsets: 
#        150
#        18500
#        35832
#        56236
#        78337
#        94333
#        112229
#        131949
#        150478
#        166546
#        183159
#        204586
#        219084
#        233041
#        248055
#        265862
#        281659
#        297957
#
# Disc length: 4318 seconds
#
# Revision: 0
# Processed by: cddbd v1.5.2PL0 Copyright (c) Steve Scherf et al.
# Submitted via: ExactAudioCopy v0.95b4
#
DISCID=0210dc12
DTITLE=Charlie Landsborough - Heart and Soul
DYEAR=2006
DGENRE=Easy Listening
TTITLE0=Blowin' In The Wind
TTITLE1=Half Of The Ghost Of A Chance
TTITLE2=You've Got A Friend 
TTITLE3=Not A Day Goes By
TTITLE4=Saviour's Song
TTITLE5=My Most Wounderful time
TTITLE6=One Day At A Time
TTITLE7=Song Of Bernadette
TTITLE8=I'm A Lucky Man
TTITLE9=I Don't Know
TTITLE10=Who Is This Man
TTITLE11=Someone Is Looking For Someone Like You
TTITLE12=Longer Than
TTITLE13=Put Your Hand, In The Hand
TTITLE14=It's About Loving You
TTITLE15=Lord, I Hope This Day Is Good
TTITLE16=Song For The Dragonfly
TTITLE17=Shine Your Light/I Saw The Light (live version)
EXTD=
EXTT0=
EXTT1=
EXTT2=
EXTT3=
EXTT4=
EXTT5=
EXTT6=
EXTT7=
EXTT8=
EXTT9=
EXTT10=
EXTT11=
EXTT12=
EXTT13=
EXTT14=
EXTT15=
EXTT16=
EXTT17=
PLAYORDER=
